<?xml version="1.0" standalone="no"?>
<!DOCTYPE svg PUBLIC "-//W3C//DTD SVG 20010904//EN"
 "http://www.w3.org/TR/2001/REC-SVG-20010904/DTD/svg10.dtd">
<svg version="1.0" xmlns="http://www.w3.org/2000/svg"
 width="200.000000pt" height="369.000000pt" viewBox="0 0 200.000000 369.000000"
 preserveAspectRatio="xMidYMid meet">
<metadata>
Created by potrace 1.14, written by Peter Selinger 2001-2017
</metadata>
<g transform="translate(0.000000,369.000000) scale(0.100000,-0.100000)">
<path d="M625 3041 c-22 -17 -50 -31 -63 -31 -34 0 -70 -28 -98 -76 -22 -37
-25 -52 -22 -116 3 -66 5 -73 24 -76 26 -4 52 20 59 54 3 13 7 35 10 48 3 14
41 61 86 105 52 52 79 86 77 98 -5 28 -30 26 -73 -6z"
      style="opacity:0.52424239;fill:#fc0000;fill-opacity:1;stroke:none"/>
<path d="M1324 3035 c-10 -26 3 -42 39 -49 37 -7 73 -38 63 -55 -9 -13 105
-141 126 -141 31 0 39 33 26 105 -12 62 -14 66 -46 75 -18 5 -51 25 -73 44
-33 30 -46 36 -84 36 -31 0 -47 -5 -51 -15z"
      style="opacity:0.52424239;fill:#fc0000;fill-opacity:1;stroke:none"/>
</g>
</svg>
