<?xml version="1.0" standalone="no"?>
<!DOCTYPE svg PUBLIC "-//W3C//DTD SVG 20010904//EN"
 "http://www.w3.org/TR/2001/REC-SVG-20010904/DTD/svg10.dtd">
<svg version="1.0" xmlns="http://www.w3.org/2000/svg"
 width="200.000000pt" height="369.000000pt" viewBox="0 0 200.000000 369.000000"
 preserveAspectRatio="xMidYMid meet">
<metadata>
Created by potrace 1.14, written by Peter Selinger 2001-2017
</metadata>
<g transform="translate(0.000000,369.000000) scale(0.100000,-0.100000)"
fill="#000000" stroke="none">
<path d="M507 2410 c-14 -11 -36 -20 -50 -20 -34 0 -77 -36 -77 -65 0 -13 -16
-54 -36 -91 -46 -87 -94 -223 -94 -266 0 -41 15 -58 52 -58 38 0 61 29 93 116
23 64 34 79 67 100 29 18 47 41 66 82 14 31 38 77 54 101 33 52 35 81 10 104
-25 23 -54 21 -85 -3z"/>
<path d="M1525 2350 c-16 -11 -39 -20 -50 -20 -11 0 -31 -7 -43 -16 -43 -30
-25 -81 68 -194 21 -25 54 -77 73 -116 42 -84 60 -104 91 -104 57 0 72 74 31
152 -14 26 -25 63 -25 82 0 19 -9 55 -19 80 -11 25 -23 61 -27 81 -3 20 -17
44 -31 55 -31 24 -31 24 -68 0z"/>
</g>
</svg>
