<?xml version="1.0" standalone="no"?>
<!DOCTYPE svg PUBLIC "-//W3C//DTD SVG 20010904//EN"
 "http://www.w3.org/TR/2001/REC-SVG-20010904/DTD/svg10.dtd">
<svg version="1.0" xmlns="http://www.w3.org/2000/svg"
 width="200.000000pt" height="369.000000pt" viewBox="0 0 200.000000 369.000000"
 preserveAspectRatio="xMidYMid meet">
<metadata>
Created by potrace 1.14, written by Peter Selinger 2001-2017
</metadata>
<g transform="translate(0.000000,369.000000) scale(0.100000,-0.100000)"
fill="#000000" stroke="none">
<path d="M1322 3025 c-12 -9 -33 -35 -47 -59 -21 -37 -24 -48 -15 -71 6 -16
18 -34 28 -41 20 -16 68 -18 77 -4 14 23 37 7 59 -44 33 -74 69 -93 106 -56
31 31 26 86 -15 168 -32 63 -41 73 -87 96 -60 30 -76 32 -106 11z"/>
<path d="M559 2987 c-35 -23 -90 -114 -108 -176 -20 -69 34 -131 88 -102 11 7
37 37 57 69 20 31 54 77 75 101 46 51 49 82 13 110 -35 27 -83 27 -125 -2z"/>
</g>
</svg>
