<?xml version="1.0" encoding="UTF-8" standalone="no"?>
<!-- Created with Inkscape (http://www.inkscape.org/) -->

<svg
   xmlns:dc="http://purl.org/dc/elements/1.1/"
   xmlns:cc="http://creativecommons.org/ns#"
   xmlns:rdf="http://www.w3.org/1999/02/22-rdf-syntax-ns#"
   xmlns:svg="http://www.w3.org/2000/svg"
   xmlns="http://www.w3.org/2000/svg"
   xmlns:sodipodi="http://sodipodi.sourceforge.net/DTD/sodipodi-0.dtd"
   xmlns:inkscape="http://www.inkscape.org/namespaces/inkscape"
   width="200"
   height="369.03"
   id="svg2"
   version="1.1"
   inkscape:version="0.48.3.1 r9886"
   sodipodi:docname="muscle-17.svg">
  <defs
     id="defs4" />
  <sodipodi:namedview
     id="base"
     pagecolor="#ffffff"
     bordercolor="#666666"
     borderopacity="1.0"
     inkscape:pageopacity="0.0"
     inkscape:pageshadow="2"
     inkscape:zoom="0.7"
     inkscape:cx="196.7602"
     inkscape:cy="37.965661"
     inkscape:document-units="px"
     inkscape:current-layer="layer1"
     showgrid="false"
     fit-margin-top="0"
     fit-margin-left="0"
     fit-margin-right="0"
     fit-margin-bottom="0"
     inkscape:window-width="844"
     inkscape:window-height="577"
     inkscape:window-x="867"
     inkscape:window-y="81"
     inkscape:window-maximized="0" />
  <metadata
     id="metadata7">
    <rdf:RDF>
      <cc:Work
         rdf:about="">
        <dc:format>image/svg+xml</dc:format>
        <dc:type
           rdf:resource="http://purl.org/dc/dcmitype/StillImage" />
        <dc:title />
      </cc:Work>
    </rdf:RDF>
  </metadata>
  <g
     inkscape:label="Ebene 1"
     inkscape:groupmode="layer"
     id="layer1"
     transform="translate(-54.28571,-335.71492)">
    <path
       style="opacity:0.52424239;fill:#fc0000;fill-opacity:1;stroke:none;display:inline"
       d="M 158.69,80.00
           C 161.18,85.59 162.05,92.56 154.98,95.26
             148.01,97.92 143.52,90.59 138.00,87.39
             133.51,84.79 130.44,85.69 127.23,82.69
             119.30,75.30 130.75,66.91 137.00,63.75
             147.40,61.72 154.94,71.60 158.69,80.00 Z"
       id="path2992-9-5-1-4"
       inkscape:connector-curvature="0"
       sodipodi:nodetypes="ccccc" />
    <path
       style="opacity:0.52424239;fill:#fc0000;fill-opacity:1;stroke:none;display:inline"
       d="M 73.53,78.90
           C 71.56,82.66 67.16,83.77 64.09,86.39
             58.96,90.77 56.73,97.85 49.00,99.40
             42.64,100.68 36.73,94.18 40.41,86.00
             42.48,81.42 48.60,72.50 53.00,70.16
             54.88,69.16 59.73,68.07 62.00,67.51
             72.40,65.99 76.55,73.14 73.53,78.90 Z"
       id="path2992-9-5-1-4-3"
       inkscape:connector-curvature="0"
       sodipodi:nodetypes="ccccc" />
  </g>
</svg>
